# xmcd CD database file
# Copyright (C) 1993-1998 Ti Kan
#
# Track frame offsets:
#	150
#	14487
#	31982
#	49287
#	66152
#	81900
#	97937
#	114365
#	129590
#	140365
#	156855
#	170422
#	183685
#	198747
#
# Disc length: 2831 seconds
#
# Revision: 1
# Processed by: cddbd v1.4b41PL1 Copyright (c) Steve Scherf et al.
# Submitted via: CDValet v3.31 - Copyright (c) 1997 Greg Leichner
#
DISCID=c30b0d0e
DTITLE=Hot Hits Country Jukebox Edition - Country Hot Hits #37
DYEAR=1900
DGENRE=
TTITLE0=Honky Tonk World
TTITLE1=Baby Likes To Rock It
TTITLE2=Livin' On Love
TTITLE3=Kick A Little
TTITLE4=She's Not The Cheatin' Kind
TTITLE5=Who's That Man
TTITLE6=I See It Now
TTITLE7=Hard Lovin' Woman
TTITLE8=William And Mary
TTITLE9=I Sure Can Smell The Rain
TTITLE10=When The Thought Of You Catches Up With Me
TTITLE11=Where There's Smoke
TTITLE12=Has Anybody Seen Amy
TTITLE13=Redneck Stomp
EXTD=
EXTT0=LeDoux - Chris
EXTT1=Tractors - The
EXTT2=Jackson - Alan
EXTT3=Little Texas
EXTT4=Brooks and Dunn
EXTT5=Keith - Toby
EXTT6=Lawrence - Tracy
EXTT7=Collie - Mark
EXTT8=Daniel - Davis
EXTT9=Blackhawk
EXTT10=Ball - David
EXTT11=Archer/Park
EXTT12=Wiggins - John and Audrey
EXTT13=Foxworthy - Jeff
PLAYORDER=
